<?xml version="1.0" encoding="UTF-8" standalone="no"?>
<!-- Created with Inkscape (http://www.inkscape.org/) -->

<svg
   width="66.55619mm"
   height="66.556198mm"
   viewBox="0 0 66.55619 66.556198"
   version="1.1"
   id="svg1"
   xmlns:xlink="http://www.w3.org/1999/xlink"
   xmlns="http://www.w3.org/2000/svg"
   xmlns:svg="http://www.w3.org/2000/svg">
  <defs
     id="defs1">
    <linearGradient
       id="linearGradient24">
      <stop
         style="stop-color:#28415f;stop-opacity:1;"
         offset="0.77582848"
         id="stop24" />
      <stop
         style="stop-color:#28415f;stop-opacity:0;"
         offset="1"
         id="stop25" />
    </linearGradient>
    <linearGradient
       id="linearGradient19">
      <stop
         style="stop-color:#304f74;stop-opacity:1;"
         offset="0.85769975"
         id="stop19" />
      <stop
         style="stop-color:#2d2d2d;stop-opacity:1;"
         offset="1"
         id="stop20" />
    </linearGradient>
    <radialGradient
       xlink:href="#linearGradient19"
       id="radialGradient20"
       cx="111.15479"
       cy="130.65875"
       fx="111.15479"
       fy="130.65875"
       r="16.42557"
       gradientUnits="userSpaceOnUse" />
    <radialGradient
       xlink:href="#linearGradient24"
       id="radialGradient25"
       cx="126.48742"
       cy="133.52728"
       fx="126.48742"
       fy="133.52728"
       r="11.146228"
       gradientTransform="matrix(2.0259934,0,0,2.0259934,-129.76646,-137.01208)"
       gradientUnits="userSpaceOnUse" />
  </defs>
  <g
     id="layer1"
     transform="translate(-133.02059,-83.240865)">
    <g
       id="g17"
       transform="translate(39.802462,-16.99431)"
       style="display:inline;fill:#ffffff;fill-opacity:1">
      <path
         style="display:none;fill:#ffffff;fill-opacity:1;stroke:#000000;stroke-width:0.264583;stroke-linejoin:miter;stroke-opacity:1"
         id="path14"
         d="m 100.6071,135.13615 c -0.1825,-3.0738 -2.859866,-0.43678 -2.55927,-3.50129 0.300596,-3.0645 2.41453,0.0425 3.19082,-2.93726 0.77629,-2.97975 -2.584917,-1.29915 -1.35205,-4.12078 1.23287,-2.82163 2.28323,0.78655 3.94232,-1.80748 1.65909,-2.59403 -2.05695,-2.03435 -0.0125,-4.3369 2.04446,-2.30255 1.92842,1.4536 4.30791,-0.50078 2.37949,-1.95438 -1.32762,-2.57041 1.3283,-4.12849 2.65592,-1.55809 1.38485,1.97837 4.25181,0.85495 2.86696,-1.12343 -0.46834,-2.85487 2.53907,-3.51597 3.0074,-0.6611 0.70572,2.30949 3.77952,2.12699 3.0738,-0.1825 0.43678,-2.85987 3.50128,-2.55927 3.06451,0.3006 -0.0425,2.41453 2.93727,3.19082 2.97975,0.77629 1.29915,-2.58492 4.12077,-1.35205 2.82163,1.23287 -0.78654,2.28323 1.80749,3.94232 2.59402,1.65909 2.03435,-2.05695 4.3369,-0.0125 2.30255,2.04446 -1.4536,1.92842 0.50078,4.30791 1.95437,2.37949 2.57041,-1.32762 4.12849,1.3283 1.55809,2.65592 -1.97837,1.38485 -0.85495,4.25181 1.12342,2.86697 2.85487,-0.46834 3.51597,2.53907 0.6611,3.0074 -2.30949,0.70572 -2.12699,3.77952 0.1825,3.0738 2.85986,0.43678 2.55927,3.50128 -0.3006,3.06451 -2.41454,-0.0425 -3.19083,2.93727 -0.77629,2.97975 2.58492,1.29915 1.35206,4.12078 -1.23287,2.82162 -2.28323,-0.78655 -3.94232,1.80748 -1.65909,2.59403 2.05694,2.03435 0.0125,4.3369 -2.04446,2.30255 -1.92843,-1.4536 -4.30791,0.50078 -2.37949,1.95437 1.32762,2.57041 -1.3283,4.12849 -2.65593,1.55809 -1.38486,-1.97837 -4.25182,-0.85495 -2.86696,1.12342 0.46835,2.85487 -2.53906,3.51597 -3.00741,0.6611 -0.70572,-2.30949 -3.77952,-2.12699 -3.0738,0.1825 -0.43678,2.85986 -3.50129,2.55927 -3.0645,-0.3006 0.0425,-2.41454 -2.93726,-3.19083 -2.97975,-0.77628 -1.29915,2.58492 -4.12078,1.35206 -2.82163,-1.23287 0.78654,-2.28323 -1.80748,-3.94232 -2.59403,-1.65909 -2.03435,2.05695 -4.3369,0.0125 -2.30255,-2.04446 1.4536,-1.92843 -0.50078,-4.30791 -1.95438,-2.37949 -2.57041,1.32762 -4.12849,-1.3283 -1.558089,-2.65592 1.97837,-1.38485 0.85495,-4.25182 -1.12343,-2.86696 -2.85487,0.46835 -3.51597,-2.53906 -0.661101,-3.00741 2.30949,-0.70572 2.12699,-3.77952 z" />
      <circle
         style="display:inline;fill:#121d2b;fill-opacity:1;stroke:#000000;stroke-width:0.97582;stroke-linejoin:miter;stroke-dasharray:none;stroke-opacity:1"
         id="circle15"
         cy="133.51329"
         cx="126.49621"
         r="23.682423" />
      <path
         style="display:inline;fill:url(#radialGradient25);fill-opacity:1;stroke:#0e0e0e;stroke-width:0.650546;stroke-linecap:round;stroke-linejoin:bevel;stroke-dasharray:none;stroke-opacity:1"
         id="path16"
         d="m 105.45811,140.76134 a 22.25165,22.25165 0 0 1 13.76777,-28.27846 22.25165,22.25165 0 0 1 28.29303,13.73781 22.25165,22.25165 0 0 1 -13.70785,28.30757 A 22.25165,22.25165 0 0 1 105.489,140.8504" />
      <path
         id="path17"
         style="display:inline;fill:url(#radialGradient20);stroke:#000000;stroke-width:0.264583"
         d="m 109.67173,118.89123 -0.30429,-4.31221 c -0.0362,-0.51299 1.22717,0.26444 1.99694,0.25774 0.76977,-0.007 2.00959,-0.82195 1.97625,-0.29265 l -0.2719,4.31731 -3.5777,0.0314 z m -3.56378,1.03423 -1.62194,-4.00712 c -0.19295,-0.4767 1.24882,-0.12772 1.97885,-0.37196 0.72993,-0.24453 1.65723,-1.40272 1.78909,-0.88902 l 1.07553,4.19002 -3.3929,1.13544 z m -3.06976,2.08489 -2.78083,-3.30979 c -0.330815,-0.39374 1.14823,-0.50738 1.76705,-0.96526 0.61865,-0.45812 1.14267,-1.84618 1.42681,-1.39837 l 2.31768,3.6526 -2.87597,2.12832 z m -2.27525,2.93145 -3.667511,-2.28848 c -0.436295,-0.27224 0.935249,-0.83736 1.382288,-1.46406 0.446796,-0.62687 0.516236,-2.10892 0.924852,-1.77084 l 3.332961,2.75763 -2.07752,2.91287 z m -1.258027,3.49107 -4.195186,-1.04315 c -0.499069,-0.1241 0.630714,-1.08539 0.862214,-1.81956 0.231214,-0.73426 -0.160724,-2.16523 0.332368,-1.96996 l 4.021981,1.59272 -1.075704,3.41229 z m -0.117653,3.70895 -4.31221,0.30429 c -0.51299,0.0362 0.26444,-1.22717 0.25774,-1.99694 -0.007,-0.76977 -0.82195,-2.00959 -0.29265,-1.97625 l 4.31731,0.2719 0.0314,3.5777 z m 1.03423,3.56378 -4.00712,1.62194 c -0.476696,0.19295 -0.127719,-1.24882 -0.371963,-1.97885 -0.244529,-0.72993 -1.402718,-1.65723 -0.889022,-1.78909 l 4.190028,-1.07553 1.135437,3.3929 z m 2.08489,3.06976 -3.309795,2.78083 c -0.39374,0.33081 -0.507376,-1.14823 -0.965256,-1.76705 -0.458122,-0.61865 -1.846179,-1.14267 -1.398369,-1.42681 l 3.6526,-2.31768 2.12832,2.87597 z m 2.93145,2.27525 -2.28848,3.66751 c -0.27224,0.4363 -0.83736,-0.93525 -1.46406,-1.38229 -0.62687,-0.44679 -2.108923,-0.51623 -1.770835,-0.92485 l 2.757625,-3.33296 2.91287,2.07752 z m 3.49107,1.25803 -1.04315,4.19518 c -0.1241,0.49907 -1.08539,-0.63071 -1.81956,-0.86221 -0.73426,-0.23122 -2.16523,0.16072 -1.96996,-0.33237 l 1.59272,-4.02198 3.41229,1.0757 z m 3.70895,0.11765 0.30429,4.31221 c 0.0362,0.51299 -1.22717,-0.26444 -1.99694,-0.25774 -0.76977,0.007 -2.00959,0.82195 -1.97625,0.29265 l 0.2719,-4.31731 3.5777,-0.0314 z m 3.56378,-1.03423 1.62194,4.00712 c 0.19295,0.4767 -1.24882,0.12772 -1.97885,0.37196 -0.72993,0.24453 -1.65723,1.40272 -1.78909,0.88902 l -1.07553,-4.19002 3.3929,-1.13544 z m 3.06976,-2.08489 2.78083,3.30979 c 0.33081,0.39374 -1.14823,0.50738 -1.76705,0.96526 -0.61865,0.45812 -1.14267,1.84618 -1.42681,1.39837 l -2.31768,-3.6526 2.87597,-2.12832 z m 2.27525,-2.93145 3.66751,2.28848 c 0.4363,0.27224 -0.93525,0.83736 -1.38229,1.46406 -0.44679,0.62687 -0.51623,2.10892 -0.92485,1.77084 l -3.33296,-2.75763 2.07752,-2.91287 z m 1.25803,-3.49107 4.19518,1.04315 c 0.49907,0.1241 -0.63071,1.08539 -0.86221,1.81956 -0.23122,0.73426 0.16072,2.16523 -0.33237,1.96996 l -4.02198,-1.59272 1.0757,-3.41229 z m 0.11765,-3.70895 4.31221,-0.30429 c 0.51299,-0.0362 -0.26444,1.22717 -0.25774,1.99694 0.007,0.76977 0.82195,2.00959 0.29265,1.97625 l -4.31731,-0.2719 -0.0314,-3.5777 z m -1.03423,-3.56378 4.00712,-1.62194 c 0.4767,-0.19295 0.12772,1.24882 0.37196,1.97885 0.24453,0.72993 1.40272,1.65723 0.88902,1.78909 l -4.19002,1.07553 -1.13544,-3.3929 z m -2.08489,-3.06976 3.30979,-2.78083 c 0.39374,-0.33081 0.50738,1.14823 0.96526,1.76705 0.45812,0.61865 1.84618,1.14267 1.39837,1.42681 l -3.6526,2.31768 -2.12832,-2.87597 z m -2.93145,-2.27525 2.28848,-3.66751 c 0.27224,-0.4363 0.83736,0.93525 1.46406,1.38229 0.62687,0.44679 2.10892,0.51623 1.77084,0.92485 l -2.75763,3.33296 -2.91287,-2.07752 z m -3.49107,-1.25803 1.04315,-4.19518 c 0.1241,-0.49907 1.08539,0.63071 1.81956,0.86221 0.73426,0.23122 2.16523,-0.16072 1.96996,0.33237 l -1.59272,4.02198 -3.41229,-1.0757 z"
         transform="matrix(2.0259934,0,0,2.0259934,-98.70266,-131.20051)" />
      <path
         style="display:none;fill:#ffffff;fill-opacity:1;stroke:#000000;stroke-width:0.4685;stroke-linecap:round;stroke-linejoin:bevel;stroke-dasharray:none;stroke-dashoffset:2.90268;stroke-opacity:1"
         id="path18"
         d="m 99.904747,134.53464 a 11.898987,11.898987 0 0 1 7.362263,-15.12181 11.898987,11.898987 0 0 1 15.12959,7.34625 11.898987,11.898987 0 0 1 -7.33022,15.13736 11.898987,11.898987 0 0 1 -15.145114,-7.31418" />
    </g>
  </g>
</svg>
