<?xml version="1.0" encoding="UTF-8" standalone="no"?>
<!-- Created with Inkscape (http://www.inkscape.org/) -->

<svg
   width="47.654865mm"
   height="47.654804mm"
   viewBox="0 0 47.654865 47.654804"
   version="1.1"
   id="svg1"
   inkscape:version="1.3 (0e150ed6c4, 2023-07-21)"
   sodipodi:docname="bottlecap.svg"
   xmlns:inkscape="http://www.inkscape.org/namespaces/inkscape"
   xmlns:sodipodi="http://sodipodi.sourceforge.net/DTD/sodipodi-0.dtd"
   xmlns:xlink="http://www.w3.org/1999/xlink"
   xmlns="http://www.w3.org/2000/svg"
   xmlns:svg="http://www.w3.org/2000/svg">
  <sodipodi:namedview
     id="namedview1"
     pagecolor="#505050"
     bordercolor="#eeeeee"
     borderopacity="1"
     inkscape:showpageshadow="0"
     inkscape:pageopacity="0"
     inkscape:pagecheckerboard="0"
     inkscape:deskcolor="#505050"
     inkscape:document-units="mm"
     inkscape:zoom="1.4641838"
     inkscape:cx="369.83062"
     inkscape:cy="869.08489"
     inkscape:window-width="1920"
     inkscape:window-height="1017"
     inkscape:window-x="-8"
     inkscape:window-y="-8"
     inkscape:window-maximized="1"
     inkscape:current-layer="g8" />
  <defs
     id="defs1">
    <linearGradient
       id="linearGradient9"
       inkscape:collect="always">
      <stop
         style="stop-color:#3d3d3d;stop-opacity:0.28268552;"
         offset="0.28735632"
         id="stop11" />
      <stop
         style="stop-color:#acacac;stop-opacity:0;"
         offset="0.69885057"
         id="stop10" />
      <stop
         style="stop-color:#000000;stop-opacity:1;"
         offset="1"
         id="stop9" />
    </linearGradient>
    <radialGradient
       inkscape:collect="always"
       xlink:href="#linearGradient9"
       id="radialGradient10"
       cx="121.1934"
       cy="133.96281"
       fx="121.1934"
       fy="133.96281"
       r="23.827431"
       gradientTransform="matrix(1,0,0,0.99999878,0,1.6338179e-4)"
       gradientUnits="userSpaceOnUse" />
  </defs>
  <g
     inkscape:label="Layer 1"
     inkscape:groupmode="layer"
     id="layer1"
     transform="translate(-97.365961,-110.1354)">
    <g
       id="g8"
       inkscape:label="second draft"
       inkscape:export-filename="bottlecap-draft-2.svg"
       inkscape:export-xdpi="138.41452"
       inkscape:export-ydpi="138.41452">
      <path
         sodipodi:type="star"
         style="display:none;fill:none;fill-opacity:1;stroke:#000000;stroke-width:0.264583;stroke-linejoin:miter;stroke-opacity:1"
         id="path7"
         inkscape:flatsided="false"
         sodipodi:sides="20"
         sodipodi:cx="121.24857"
         sodipodi:cy="133.91061"
         sodipodi:r1="20.677824"
         sodipodi:r2="23.31209"
         sodipodi:arg1="3.0822898"
         sodipodi:arg2="3.2393694"
         inkscape:rounded="0.71"
         inkscape:randomized="0"
         d="m 100.6071,135.13615 c -0.1825,-3.0738 -2.859866,-0.43678 -2.55927,-3.50129 0.300596,-3.0645 2.41453,0.0425 3.19082,-2.93726 0.77629,-2.97975 -2.584917,-1.29915 -1.35205,-4.12078 1.23287,-2.82163 2.28323,0.78655 3.94232,-1.80748 1.65909,-2.59403 -2.05695,-2.03435 -0.0125,-4.3369 2.04446,-2.30255 1.92842,1.4536 4.30791,-0.50078 2.37949,-1.95438 -1.32762,-2.57041 1.3283,-4.12849 2.65592,-1.55809 1.38485,1.97837 4.25181,0.85495 2.86696,-1.12343 -0.46834,-2.85487 2.53907,-3.51597 3.0074,-0.6611 0.70572,2.30949 3.77952,2.12699 3.0738,-0.1825 0.43678,-2.85987 3.50128,-2.55927 3.06451,0.3006 -0.0425,2.41453 2.93727,3.19082 2.97975,0.77629 1.29915,-2.58492 4.12077,-1.35205 2.82163,1.23287 -0.78654,2.28323 1.80749,3.94232 2.59402,1.65909 2.03435,-2.05695 4.3369,-0.0125 2.30255,2.04446 -1.4536,1.92842 0.50078,4.30791 1.95437,2.37949 2.57041,-1.32762 4.12849,1.3283 1.55809,2.65592 -1.97837,1.38485 -0.85495,4.25181 1.12342,2.86697 2.85487,-0.46834 3.51597,2.53907 0.6611,3.0074 -2.30949,0.70572 -2.12699,3.77952 0.1825,3.0738 2.85986,0.43678 2.55927,3.50128 -0.3006,3.06451 -2.41454,-0.0425 -3.19083,2.93727 -0.77629,2.97975 2.58492,1.29915 1.35206,4.12078 -1.23287,2.82162 -2.28323,-0.78655 -3.94232,1.80748 -1.65909,2.59403 2.05694,2.03435 0.0125,4.3369 -2.04446,2.30255 -1.92843,-1.4536 -4.30791,0.50078 -2.37949,1.95437 1.32762,2.57041 -1.3283,4.12849 -2.65593,1.55809 -1.38486,-1.97837 -4.25182,-0.85495 -2.86696,1.12342 0.46835,2.85487 -2.53906,3.51597 -3.00741,0.6611 -0.70572,-2.30949 -3.77952,-2.12699 -3.0738,0.1825 -0.43678,2.85986 -3.50129,2.55927 -3.0645,-0.3006 0.0425,-2.41454 -2.93726,-3.19083 -2.97975,-0.77628 -1.29915,2.58492 -4.12078,1.35206 -2.82163,-1.23287 0.78654,-2.28323 -1.80748,-3.94232 -2.59403,-1.65909 -2.03435,2.05695 -4.3369,0.0125 -2.30255,-2.04446 1.4536,-1.92843 -0.50078,-4.30791 -1.95438,-2.37949 -2.57041,1.32762 -4.12849,-1.3283 -1.558089,-2.65592 1.97837,-1.38485 0.85495,-4.25182 -1.12343,-2.86696 -2.85487,0.46835 -3.51597,-2.53906 -0.661101,-3.00741 2.30949,-0.70572 2.12699,-3.77952 z"
         inkscape:transform-center-x="0.067130441"
         inkscape:transform-center-y="0.064176283"
         inkscape:label="basic shape" />
      <path
         id="path8"
         style="display:inline;fill:#ffffff;fill-opacity:1;stroke:#ffffff;stroke-width:0.529167;stroke-linejoin:miter;stroke-dasharray:none;stroke-dashoffset:0.768;stroke-opacity:1"
         inkscape:label="basic shape"
         inkscape:transform-center-x="0.067130441"
         inkscape:transform-center-y="0.064176283"
         d="m 100.6071,135.13615 c -0.0913,-1.5369 -0.806216,-1.6461 -1.460796,-1.75413 -0.654579,-0.10803 -1.248772,-0.21491 -1.098474,-1.74716 0.150298,-1.53225 0.75393,-1.52163 1.417024,-1.50041 0.663096,0.0212 1.385656,0.053 1.773796,-1.43685 0.38814,-1.48988 -0.25809,-1.81466 -0.84724,-2.11969 -0.589159,-0.30502 -1.121243,-0.59028 -0.50481,-2.00109 0.61643,-1.41082 1.18724,-1.21418 1.81133,-0.98909 0.62408,0.22509 1.30145,0.47862 2.13099,-0.81839 0.82954,-1.29702 0.31531,-1.8056 -0.15076,-2.27776 -0.46607,-0.47215 -0.88396,-0.90787 0.13826,-2.05914 1.02223,-1.15128 1.50433,-0.78788 2.02832,-0.38096 0.26199,0.20347 0.53445,0.41781 0.89013,0.45913 0.35569,0.0413 0.79459,-0.0904 1.38946,-0.57895 1.18974,-0.97719 0.85784,-1.61979 0.56049,-2.21286 -0.29735,-0.59306 -0.56015,-1.13659 0.76781,-1.91563 1.32796,-0.77904 1.67417,-0.28445 2.04677,0.26448 0.37259,0.54892 0.77156,1.15218 2.20504,0.59047 1.43348,-0.56171 1.3164,-1.27543 1.21687,-1.93136 -0.0995,-0.65592 -0.18151,-1.25406 1.3222,-1.58461 1.5037,-0.33055 1.68013,0.24682 1.86486,0.88402 0.18473,0.6372 0.37776,1.33422 1.91466,1.24297 1.5369,-0.0912 1.64609,-0.80622 1.75413,-1.4608 0.10803,-0.65458 0.2149,-1.24877 1.74715,-1.09847 1.53225,0.1503 1.52163,0.75393 1.50041,1.41703 -0.0212,0.66309 -0.053,1.38564 1.43686,1.77379 1.48988,0.38814 1.81466,-0.25809 2.11968,-0.84724 0.30503,-0.58916 0.59028,-1.12125 2.00109,-0.50481 1.41081,0.61644 1.21418,1.18724 0.98909,1.81133 -0.22508,0.62408 -0.47862,1.30144 0.8184,2.13099 1.29701,0.82954 1.8056,0.31531 2.27775,-0.15076 0.47216,-0.46607 0.90787,-0.88397 2.05915,0.13826 1.15128,1.02223 0.78788,1.50433 0.38096,2.02832 -0.40693,0.52398 -0.85737,1.08984 0.11982,2.27959 0.97719,1.18974 1.61979,0.85784 2.21286,0.56049 0.59306,-0.29735 1.13659,-0.56015 1.91563,0.76781 0.77904,1.32796 0.28445,1.67417 -0.26448,2.04677 -0.54892,0.37259 -1.15218,0.77156 -0.59047,2.20504 0.56171,1.43348 1.27543,1.3164 1.93136,1.21687 0.65592,-0.0995 1.25406,-0.18151 1.58461,1.3222 0.33055,1.5037 -0.24682,1.68013 -0.88402,1.86486 -0.6372,0.18473 -1.33422,0.37776 -1.24297,1.91466 0.0913,1.5369 0.80621,1.64609 1.46079,1.75413 0.65458,0.10803 1.24877,0.2149 1.09848,1.74715 -0.1503,1.53226 -0.75393,1.52163 -1.41703,1.50041 -0.6631,-0.0212 -1.38565,-0.053 -1.7738,1.43686 -0.38814,1.48988 0.25809,1.81466 0.84725,2.11969 0.58915,0.30502 1.12124,0.59027 0.50481,2.00109 -0.61643,1.41081 -1.18724,1.21418 -1.81132,0.98909 -0.62409,-0.22509 -1.30145,-0.47863 -2.131,0.81839 -0.82955,1.29701 -0.31531,1.8056 0.15076,2.27775 0.46606,0.47216 0.88396,0.90787 -0.13826,2.05915 -1.02222,1.15128 -1.50433,0.78788 -2.02832,0.38096 -0.52398,-0.40693 -1.08985,-0.85737 -2.27959,0.11982 -1.18974,0.97719 -0.85784,1.61979 -0.56049,2.21286 0.29735,0.59306 0.56015,1.13659 -0.76781,1.91563 -1.32797,0.77904 -1.67418,0.28445 -2.04677,-0.26447 -0.3726,-0.54893 -0.77157,-1.15219 -2.20505,-0.59048 -1.43348,0.56171 -1.31639,1.27543 -1.21686,1.93135 0.0995,0.65593 0.1815,1.25407 -1.3222,1.58462 -1.50371,0.33055 -1.68014,-0.24682 -1.86486,-0.88402 -0.18473,-0.6372 -0.37776,-1.33422 -1.91466,-1.24297 -1.5369,0.0913 -1.6461,0.80621 -1.75413,1.46079 -0.10803,0.65458 -0.21491,1.24877 -1.74716,1.09848 -1.53225,-0.15029 -1.52163,-0.75393 -1.50041,-1.41703 0.0212,-0.66309 0.053,-1.38566 -1.43685,-1.7738 -1.48987,-0.38814 -1.81466,0.25809 -2.11968,0.84724 -0.30503,0.58916 -0.59029,1.12125 -2.0011,0.50482 -1.41082,-0.61643 -1.21418,-1.18724 -0.9891,-1.81132 0.22509,-0.62409 0.47863,-1.30146 -0.81838,-2.131 -1.29701,-0.82955 -1.8056,-0.31531 -2.27775,0.15076 -0.47216,0.46607 -0.90788,0.88396 -2.05915,-0.13826 -1.15128,-1.02223 -0.78788,-1.50433 -0.38096,-2.02832 0.40693,-0.52399 0.85737,-1.08985 -0.11982,-2.27959 -0.97719,-1.18974 -1.61979,-0.85784 -2.21286,-0.56049 -0.59306,0.29735 -1.13659,0.56015 -1.91563,-0.76781 -0.77904,-1.32796 -0.28445,-1.67417 0.26448,-2.04677 0.54892,-0.37259 1.15218,-0.77157 0.59047,-2.20505 -0.56171,-1.43348 -1.27543,-1.31639 -1.93135,-1.21686 -0.655932,0.0995 -1.25407,0.1815 -1.58462,-1.3222 -0.33055,-1.50371 0.246822,-1.68014 0.88402,-1.86486 0.6372,-0.18473 1.33422,-0.37776 1.24297,-1.91466 z"
         sodipodi:nodetypes="ssssssssssssssssssssssssssssssssssssssssssssssssssssssssssssssssssssssssssssssssss" />
      <circle
         style="display:inline;fill:#ffffff;fill-opacity:1;stroke:#000000;stroke-width:0.79375;stroke-linejoin:miter;stroke-dasharray:none;stroke-opacity:1"
         id="circle7"
         cy="133.91061"
         cx="121.24857"
         inkscape:label="inner circle"
         r="19.263733"
         inkscape:export-filename="bottlecap draft 2.svg"
         inkscape:export-xdpi="138.41452"
         inkscape:export-ydpi="138.41452" />
      <path
         style="display:inline;fill:none;fill-opacity:1;stroke:#0e0e0e;stroke-width:0.529167;stroke-linecap:round;stroke-linejoin:bevel;stroke-dasharray:none;stroke-opacity:1"
         id="circle8"
         inkscape:label="inner circle"
         inkscape:export-filename="bottlecap draft 2.svg"
         inkscape:export-xdpi="138.41452"
         inkscape:export-ydpi="138.41452"
         sodipodi:type="arc"
         sodipodi:cx="121.24857"
         sodipodi:cy="133.91061"
         sodipodi:rx="18.099916"
         sodipodi:ry="18.099916"
         sodipodi:start="2.8098078"
         sodipodi:end="2.8055718"
         sodipodi:arc-type="arc"
         d="m 104.13578,139.80632 a 18.099916,18.099916 0 0 1 11.19897,-23.00224 18.099916,18.099916 0 0 1 23.01409,11.1746 18.099916,18.099916 0 0 1 -11.15022,23.02591 18.099916,18.099916 0 0 1 -23.03771,-11.12583"
         sodipodi:open="true" />
      <path
         id="path9"
         style="display:inline;fill:url(#radialGradient10);fill-opacity:1;stroke:#000000;stroke-width:0.536796;stroke-linejoin:miter;stroke-dasharray:none;stroke-dashoffset:0.768;stroke-opacity:1"
         inkscape:label="basic shape"
         inkscape:transform-center-x="0.068118522"
         inkscape:transform-center-y="0.064576518"
         d="m 100.25439,135.20653 c -0.0926,-1.55904 -0.817831,-1.66981 -1.481817,-1.77942 -0.664039,-0.1094 -1.266803,-0.21775 -1.114324,-1.77236 0.152532,-1.5543 0.764816,-1.54352 1.437428,-1.52201 0.672665,0.021 1.405663,0.0536 1.799403,-1.45757 0.39395,-1.51133 -0.26194,-1.8408 -0.85949,-2.15023 -0.59761,-0.30927 -1.137363,-0.59881 -0.512298,-2.02993 0.625328,-1.43117 1.204368,-1.23167 1.837478,-1.00334 0.63306,0.22827 1.32019,0.48547 2.16169,-0.8302 0.84151,-1.31572 0.3198,-1.83164 -0.15305,-2.31059 -0.47285,-0.47916 -0.89668,-0.92098 0.14043,-2.08885 1.03695,-1.16786 1.526,-0.79921 2.05755,-0.38658 0.26562,0.20618 0.54212,0.42393 0.90294,0.46548 0.36081,0.0421 0.80605,-0.0915 1.40949,-0.5873 1.2069,-0.9913 0.87022,-1.64314 0.56858,-2.24474 -0.30191,-0.60161 -0.56821,-1.15298 0.77886,-1.94326 1.34712,-0.79027 1.69831,-0.28875 2.07627,0.26825 0.37818,0.55685 0.7827,1.16876 2.23685,0.59898 1.45416,-0.56979 1.33539,-1.29384 1.23441,-1.9592 -0.10099,-0.6654 -0.18409,-1.27216 1.34128,-1.60747 1.52537,-0.33504 1.7043,0.25036 1.89171,0.89678 0.18724,0.64637 0.38343,1.35343 1.94225,1.26086 1.55909,-0.0926 1.66986,-0.81783 1.77942,-1.48182 0.1094,-0.66404 0.21775,-1.2668 1.77236,-1.11432 1.5543,0.15253 1.54357,0.76481 1.52201,1.43748 -0.021,0.67261 -0.0537,1.4056 1.45762,1.79935 1.51133,0.39395 1.8408,-0.26194 2.15023,-0.85949 0.30927,-0.59761 0.59876,-1.13742 2.02993,-0.5123 1.43112,0.62527 1.23167,1.20432 1.00335,1.83743 -0.22828,0.63306 -0.48548,1.32019 0.83019,2.16169 1.31572,0.8415 1.83159,0.31979 2.31059,-0.15306 0.47916,-0.47285 0.92093,-0.89667 2.08879,0.14044 1.16787,1.03695 0.79927,1.526 0.38659,2.05754 -0.41288,0.53155 -0.86974,1.10554 0.1215,2.31244 0.99125,1.20689 1.64314,0.87022 2.24475,0.56857 0.6016,-0.3019 1.15298,-0.5682 1.94325,0.77892 0.79027,1.34706 0.28876,1.69825 -0.26825,2.07627 -0.55684,0.37817 -1.16881,0.78265 -0.59897,2.2368 0.56978,1.45415 1.29378,1.33539 1.95919,1.2344 0.66535,-0.10098 1.27211,-0.18409 1.60742,1.34128 0.33557,1.52537 -0.25036,1.70436 -0.89673,1.89171 -0.64642,0.18725 -1.35348,0.38343 -1.26091,1.94226 0.0926,1.55908 0.81783,1.66985 1.48187,1.77941 0.66399,0.1094 1.26675,0.21775 1.11433,1.77237 -0.15254,1.55435 -0.76482,1.54357 -1.43748,1.52206 -0.67267,-0.021 -1.40561,-0.0537 -1.79935,1.45757 -0.39396,1.51132 0.26193,1.84079 0.85943,2.15022 0.59767,0.30927 1.13742,0.59877 0.5123,2.02994 -0.62533,1.43117 -1.20437,1.23167 -1.83743,1.00334 -0.63306,-0.22827 -1.32019,-0.48547 -2.16169,0.83019 -0.84155,1.31572 -0.31979,1.8316 0.15306,2.3106 0.47285,0.47916 0.89673,0.92092 -0.14044,2.08879 -1.03695,1.16792 -1.526,0.79927 -2.05754,0.38659 -0.53155,-0.41289 -1.1056,-0.86975 -2.31249,0.1215 -1.2069,0.99124 -0.87022,1.64313 -0.56852,2.24474 0.30138,0.60161 0.5682,1.15298 -0.77892,1.94325 -1.34711,0.79028 -1.69831,0.28876 -2.07627,-0.26824 -0.37817,-0.55685 -0.7827,-1.16882 -2.23685,-0.59898 -1.4541,0.56979 -1.33534,1.29379 -1.2344,1.95919 0.10098,0.66536 0.18409,1.27212 -1.34123,1.60743 -1.52537,0.33557 -1.70436,-0.25037 -1.89176,-0.89673 -0.18725,-0.64637 -0.38344,-1.35343 -1.94226,-1.26091 -1.55903,0.0926 -1.6698,0.81783 -1.77941,1.48187 -0.10941,0.66398 -0.21776,1.26675 -1.77237,1.11432 -1.5543,-0.15253 -1.54352,-0.76481 -1.522,-1.43748 0.021,-0.67261 0.0536,-1.40561 -1.45758,-1.79935 -1.51132,-0.39395 -1.84079,0.26194 -2.15022,0.85944 -0.30927,0.59766 -0.59882,1.13741 -2.02994,0.5123 -1.43117,-0.62528 -1.23172,-1.20432 -1.00339,-1.83743 0.22827,-0.63306 0.48547,-1.32019 -0.83014,-2.16169 -1.31572,-0.84151 -1.83165,-0.31979 -2.3106,0.15305 -0.47916,0.47285 -0.92097,0.89673 -2.08884,-0.14043 -1.16787,-1.03695 -0.79922,-1.526 -0.38659,-2.05755 0.41289,-0.53155 0.86975,-1.10559 -0.1215,-2.31249 -0.9913,-1.20689 -1.64314,-0.87016 -2.24474,-0.56852 -0.60161,0.30138 -1.15298,0.56821 -1.94326,-0.77891 -0.79027,-1.34712 -0.28875,-1.69831 0.26825,-2.07627 0.55679,-0.37818 1.16876,-0.7827 0.59898,-2.2368 -0.56984,-1.45416 -1.29384,-1.33539 -1.959196,-1.23441 -0.665407,0.10099 -1.272168,0.18409 -1.607475,-1.34128 -0.335044,-1.52537 0.250363,-1.70435 0.896782,-1.89176 0.646366,-0.18724 1.353429,-0.38343 1.260859,-1.94225 z"
         sodipodi:nodetypes="ssssssssssssssssssssssssssssssssssssssssssssssssssssssssssssssssssssssssssssssssss" />
    </g>
  </g>
</svg>
